<?xml version="1.0" encoding="utf-8"?>
<!-- Generator: Adobe Illustrator 24.1.2, SVG Export Plug-In . SVG Version: 6.00 Build 0)  -->
<svg version="1.1" id="레이어_1" xmlns="http://www.w3.org/2000/svg" xmlns:xlink="http://www.w3.org/1999/xlink" x="0px"
	 y="0px" viewBox="0 0 297 205" style="enable-background:new 0 0 297 205;" xml:space="preserve">
<style type="text/css">
	.st0{fill:#050101;stroke:url(#SVGID_1_);stroke-miterlimit:10;}
	.st1{fill:#050101;stroke:url(#SVGID_2_);stroke-miterlimit:10;}
	.st2{fill:#050101;stroke:url(#SVGID_3_);stroke-miterlimit:10;}
	.st3{fill:#050101;stroke:url(#SVGID_4_);stroke-miterlimit:10;}
	.st4{fill:#050101;stroke:url(#SVGID_5_);stroke-miterlimit:10;}
	.st5{fill:#050101;stroke:url(#SVGID_6_);stroke-miterlimit:10;}
	.st6{fill:#050101;stroke:url(#SVGID_7_);stroke-miterlimit:10;}
	.st7{fill:#050101;stroke:url(#SVGID_8_);stroke-miterlimit:10;}
	.st8{fill:#050101;stroke:url(#SVGID_9_);stroke-miterlimit:10;}
</style>
<g>
	<linearGradient id="SVGID_1_" gradientUnits="userSpaceOnUse" x1="35.5991" y1="43.3196" x2="85.0508" y2="43.3196">
		<stop  offset="0" style="stop-color:#036EB8"/>
		<stop  offset="1" style="stop-color:#FFFFFF"/>
	</linearGradient>
	<path class="st0" d="M36.1,10.87h22.35c7.87,0,14.18,1.83,18.95,5.49c4.77,3.66,7.15,8.49,7.15,14.49c0,6.32-2.41,11.27-7.24,14.85
		c-4.83,3.58-11.51,5.37-20.05,5.37h-3.1v24.7H36.1V10.87z M54.16,23.31v15.32c4.05-0.06,7.04-0.7,8.97-1.9
		c1.93-1.2,2.89-3.09,2.89-5.69c0-2.79-0.93-4.76-2.8-5.91C61.35,23.99,58.33,23.38,54.16,23.31z"/>
	<linearGradient id="SVGID_2_" gradientUnits="userSpaceOnUse" x1="85.114" y1="43.3196" x2="148.9461" y2="43.3196">
		<stop  offset="0" style="stop-color:#036EB8"/>
		<stop  offset="1" style="stop-color:#FFFFFF"/>
	</linearGradient>
	<path class="st1" d="M148.26,75.77h-18.77l-3.04-10.84h-19.07l-3.16,10.84H85.8l21.1-64.91h20.26L148.26,75.77z M122.99,53.26
		c-2.7-9.66-4.73-18.85-6.08-27.57h-0.24c-1.43,8.98-3.44,18.17-6.02,27.57H122.99z"/>
	<linearGradient id="SVGID_3_" gradientUnits="userSpaceOnUse" x1="156.877" y1="43.3196" x2="210.2081" y2="43.3196">
		<stop  offset="0" style="stop-color:#036EB8"/>
		<stop  offset="1" style="stop-color:#FFFFFF"/>
	</linearGradient>
	<path class="st2" d="M157.38,10.87h21.04c8.5,0,15.22,1.78,20.14,5.35c4.93,3.57,7.39,8.41,7.39,14.54c0,3.14-0.93,6.18-2.8,9.12
		c-1.87,2.93-4.59,5.15-8.17,6.64l14.42,29.27h-19.07l-14.6-29.56h-0.3v29.56h-18.06V10.87z M175.43,23.41v15.41
		c7.99-0.13,11.98-2.41,11.98-6.86c0-3.01-0.92-5.17-2.77-6.47C182.79,24.2,179.72,23.51,175.43,23.41z"/>
	<linearGradient id="SVGID_4_" gradientUnits="userSpaceOnUse" x1="219.0938" y1="43.3196" x2="274.7963" y2="43.3196">
		<stop  offset="0" style="stop-color:#036EB8"/>
		<stop  offset="1" style="stop-color:#FFFFFF"/>
	</linearGradient>
	<path class="st3" d="M219.59,10.87h18.06V41.4h0.3l17.04-30.53h18.95l-18.47,33.16l17.7,31.75h-19.84l-15.38-26.98h-0.3v26.98
		h-18.06V10.87z"/>
	<linearGradient id="SVGID_5_" gradientUnits="userSpaceOnUse" x1="8.0766" y1="162.8064" x2="70.5054" y2="162.8064">
		<stop  offset="0" style="stop-color:#036EB8"/>
		<stop  offset="1" style="stop-color:#FFFFFF"/>
	</linearGradient>
	<path class="st4" d="M8.95,130.35h20.26c4.49,9.33,7.75,16.53,9.77,21.59h0.24c2.03-5.19,5.24-12.38,9.65-21.59h20.74l-21.34,35.54
		v29.37h-18.3v-29.37L8.95,130.35z"/>
	<linearGradient id="SVGID_6_" gradientUnits="userSpaceOnUse" x1="77.9424" y1="163.7058" x2="131.4463" y2="163.7058">
		<stop  offset="0" style="stop-color:#036EB8"/>
		<stop  offset="1" style="stop-color:#FFFFFF"/>
	</linearGradient>
	<path class="st5" d="M78.44,130.35h18.53v45.7c0,2.14,0.69,3.83,2.09,5.08c1.39,1.25,3.26,1.87,5.6,1.87
		c2.42,0,4.34-0.66,5.75-1.99c1.41-1.33,2.12-3.16,2.12-5.49v-45.17h18.42v42.59c0,5.8-0.93,10.45-2.8,13.95
		c-1.87,3.5-4.62,6.07-8.25,7.71s-8.71,2.46-15.23,2.46c-9.62,0-16.39-2.01-20.32-6.03c-3.93-4.02-5.9-10.81-5.9-20.37V130.35z"/>
	<linearGradient id="SVGID_7_" gradientUnits="userSpaceOnUse" x1="140.6963" y1="163.7058" x2="174.4141" y2="163.7058">
		<stop  offset="0" style="stop-color:#036EB8"/>
		<stop  offset="1" style="stop-color:#FFFFFF"/>
	</linearGradient>
	<path class="st6" d="M155.86,130.35h18.06v46.67c0,6-1.92,10.83-5.75,14.51c-3.84,3.68-8.91,5.52-15.23,5.52
		c-3.97,0-7.89-0.89-11.74-2.67V179.6c3.61,1.94,6.22,2.92,7.81,2.92c4.57,0,6.85-2.37,6.85-7.1V130.35z"/>
	<linearGradient id="SVGID_8_" gradientUnits="userSpaceOnUse" x1="190.6377" y1="162.8064" x2="209.6953" y2="162.8064">
		<stop  offset="0" style="stop-color:#036EB8"/>
		<stop  offset="1" style="stop-color:#FFFFFF"/>
	</linearGradient>
	<path class="st7" d="M191.14,130.35h18.06v64.91h-18.06V130.35z"/>
	<linearGradient id="SVGID_9_" gradientUnits="userSpaceOnUse" x1="226.3359" y1="162.8064" x2="285.918" y2="162.8064">
		<stop  offset="0" style="stop-color:#036EB8"/>
		<stop  offset="1" style="stop-color:#FFFFFF"/>
	</linearGradient>
	<path class="st8" d="M226.84,130.35h18.24l22.94,37.44l-0.65-7v-30.44h18.06v64.91h-18.53l-22.47-36.85l0.48,8.07v28.78h-18.06
		V130.35z"/>
</g>
</svg>
